<?xml version="1.0" encoding="utf-8"?>
<!-- Generator: Adobe Illustrator 23.0.1, SVG Export Plug-In . SVG Version: 6.00 Build 0)  -->
<svg version="1.1" id="Layer_1" xmlns="http://www.w3.org/2000/svg" xmlns:xlink="http://www.w3.org/1999/xlink" x="0px" y="0px"
	 viewBox="0 0 70 70" style="enable-background:new 0 0 70 70;" xml:space="preserve">
<style type="text/css">
	.st0{fill-rule:evenodd;clip-rule:evenodd;fill:#D7D7D7;}
</style>
<path class="st0" d="M35,0h32.5C69.3,0,70,0.7,70,2.5v65c0,1.9-0.6,2.6-2.6,2.6h-65C0.7,70,0,69.3,0,67.5c0-21.7,0-43.3,0-65
	C0,0.6,0.6,0,2.6,0H35z M66.1,11.7c-0.3,0-0.5-0.1-0.7-0.1c-9,0-18,0-27.1,0c-0.4,0-0.8,0.2-1.1,0.5c-2.1,2.1-4.2,4.1-6.2,6.3
	c-0.6,0.7-1.6,1.1-2.5,1.1c-7.8,0-15.7,0-23.5,0H3.9V66h9.7c0-1.9,0-3.7,0-5.4c-0.2-1.1,0.5-2.1,1.6-2.2c0.1,0,0.3,0,0.4,0
	c1.1-0.1,1.9-0.9,1.8-2c0-0.6,0-1.2,0-1.8c-0.2-0.1-0.4-0.1-0.5-0.2c-1-0.3-1.7-1.3-1.4-2.4c0.2-0.9,1-1.5,1.9-1.4
	c1.2,0,2.5,0,3.7,0c0-0.1,0.1-0.3,0.1-0.4c0-4.3,0-8.5,0-12.8c-0.1-0.3-0.3-0.6-0.6-0.8c-2-0.8-3.3-2.8-3.2-5c0-2,0-4.1,0-6.1
	c-0.1-1.1,0.7-2,1.7-2.1c0.1,0,0.2,0,0.4,0c2.5,0,5,0,7.5,0c1.1-0.1,2,0.7,2.1,1.7c0,0.1,0,0.2,0,0.4c0,2.1,0.1,4.2,0,6.3
	c0,2.1-1.2,3.9-3.1,4.7c-0.5,0.1-0.8,0.6-0.7,1.1c0,4,0,8,0,12v0.8c0.2,0.1,0.2,0.1,0.2,0.1c1.1,0,2.2,0,3.4,0
	c1.1-0.1,2.1,0.7,2.2,1.7c0.1,1-0.6,1.9-1.6,2.1c-0.1,0-0.2,0.1-0.3,0.2c0,0.6,0,1.2,0,1.8c0,0.9,0.7,1.7,1.6,1.9
	c1.9,0.4,2.2,0.7,2.2,2.6v5.1h5.8V65c0-6.3,0-12.6,0-18.9c0.1-0.6-0.2-1.2-0.8-1.5c-5.3-3.7-6.6-10.9-2.9-16.2
	c1.1-1.6,2.6-2.9,4.4-3.8c0.4-0.2,0.8-0.3,1.3-0.5v1.1c0,3,0,6,0,9c-0.1,0.5,0.2,1,0.7,1.2c1.1,0.5,2.1,1.4,3.2,1.4
	c1,0,2.1-0.9,3.1-1.4c0.5-0.2,0.9-0.7,0.8-1.2c0-3,0-6,0-9c0-0.3,0-0.6,0-1.1c0.5,0.2,0.9,0.3,1.2,0.5c5.8,2.9,8.1,9.9,5.3,15.6
	c-0.9,1.8-2.2,3.3-3.9,4.5c-0.5,0.3-0.8,0.8-0.7,1.4c0,6.3,0,12.7,0,19v1h15.5L66.1,11.7L66.1,11.7z M9.7,7.8c-1,0-1.9,0.8-1.9,1.9
	c0,0,0,0,0,0c0,1.1,0.8,1.9,1.9,2c0,0,0,0,0.1,0c1.1,0,1.9-0.9,1.9-1.9C11.7,8.7,10.8,7.8,9.7,7.8C9.7,7.8,9.7,7.8,9.7,7.8z
	 M25.3,7.8c-1.1,0-1.9,0.8-2,1.9c0,0,0,0,0,0.1c0,1,0.9,1.9,1.9,1.9c1.1,0,1.9-0.8,2-1.9c0,0,0,0,0-0.1C27.2,8.7,26.4,7.8,25.3,7.8
	C25.4,7.8,25.3,7.8,25.3,7.8L25.3,7.8z M17.5,7.8c-1.1,0-1.9,0.9-1.9,1.9c0,1.1,0.9,1.9,1.9,1.9s1.9-0.9,1.9-1.9c0,0,0,0,0,0
	C19.4,8.7,18.6,7.8,17.5,7.8L17.5,7.8z"/>
</svg>
