<?xml version="1.0" encoding="utf-8"?>
<!-- Generator: Adobe Illustrator 23.0.1, SVG Export Plug-In . SVG Version: 6.00 Build 0)  -->
<svg version="1.1" id="Layer_1" xmlns="http://www.w3.org/2000/svg" xmlns:xlink="http://www.w3.org/1999/xlink" x="0px" y="0px"
	 viewBox="0 0 70 70" style="enable-background:new 0 0 70 70;" xml:space="preserve">
<style type="text/css">
	.st0{fill-rule:evenodd;clip-rule:evenodd;fill:#D7D7D7;}
</style>
<path class="st0" d="M35.1,0c0.2,0.1,0.4,0.3,0.6,0.4C46.9,6,58,11.5,69.2,17.1c0.2,0.1,0.5,0.2,0.8,0.4c-0.3,0.2-0.5,0.3-0.7,0.4
	C58,23.5,46.8,29.1,35.6,34.7c-0.4,0.2-0.9,0.2-1.3,0C23.1,29.1,12,23.5,0.8,17.9c-0.2-0.1-0.5-0.3-0.8-0.4c0.3-0.2,0.6-0.3,0.8-0.4
	C11.9,11.5,23.1,5.9,34.2,0.4c0.2-0.1,0.4-0.3,0.6-0.4H35.1L35.1,0z M34.8,70c-1.6-0.8-3.2-1.7-4.8-2.5c-9.8-4.9-19.5-9.8-29.3-14.6
	c-0.2-0.1-0.5-0.3-0.8-0.4c0.3-0.2,0.5-0.3,0.7-0.4c2.5-1.3,5-2.5,7.4-3.7c0.4-0.2,0.8-0.2,1.2,0c8.3,4.2,16.6,8.4,25,12.5
	c0.4,0.3,1,0.3,1.4,0c8.3-4.2,16.7-8.4,25-12.5c0.3-0.2,0.7-0.2,1.1,0c2.5,1.3,5,2.5,7.5,3.8c0.2,0.1,0.4,0.2,0.7,0.4
	c-0.3,0.2-0.5,0.3-0.8,0.4C58,58.5,46.9,64,35.7,69.6c-0.2,0.1-0.4,0.3-0.6,0.4H34.8z M70,35c-0.8,0.4-1.4,0.7-2,1
	c-10.9,5.4-21.7,10.8-32.6,16.3c-0.3,0.1-0.6,0.2-0.9,0c-11.4-5.6-22.7-11.3-34-17C0.4,35.2,0.2,35.1,0,35c0.3-0.2,0.5-0.3,0.7-0.4
	c2.5-1.2,5-2.5,7.4-3.7c0.4-0.2,0.8-0.2,1.1,0c8.3,4.2,16.7,8.4,25,12.5c0.4,0.2,0.9,0.2,1.3,0c8.4-4.2,16.7-8.4,25.1-12.5
	c0.2-0.1,0.5-0.2,0.7-0.1C64.3,32.1,67.1,33.5,70,35z"/>
</svg>
