<?xml version="1.0" encoding="utf-8"?>
<!-- Generator: Adobe Illustrator 23.0.1, SVG Export Plug-In . SVG Version: 6.00 Build 0)  -->
<svg version="1.1" id="Layer_1" xmlns="http://www.w3.org/2000/svg" xmlns:xlink="http://www.w3.org/1999/xlink" x="0px" y="0px"
	 viewBox="0 0 53 70" style="enable-background:new 0 0 53 70;" xml:space="preserve">
<style type="text/css">
	.st0{fill-rule:evenodd;clip-rule:evenodd;fill:#D7D7D7;}
</style>
<path class="st0" d="M23.3,70l-3.1-0.2c-4.5-0.2-8.9-1.1-13.2-2.4c-1.6-0.6-3.3-1.3-4.8-2.1c-0.5-0.3-0.9-0.6-1.3-0.9
	C0.3,63.8,0,63,0,62.2c0-3.2,0-6.4,0-9.6v-0.8c1.3,0.6,2.5,1.2,3.8,1.7c3.7,1.4,7.6,2.4,11.5,2.9c4.6,0.6,9.3,0.9,13.9,0.7
	C35.6,57,42,56,48,54c1.6-0.5,3-1.3,4.5-2c0.1-0.1,0.2-0.1,0.4-0.2c0,0.2,0,0.4,0,0.6c0,3.3,0,6.5,0,9.8c0,0.9-0.4,1.8-1.1,2.3
	c-1.3,1-2.7,1.8-4.3,2.3c-3.6,1.3-7.3,2.2-11.2,2.6c-2.1,0.2-4.2,0.3-6.3,0.5c-0.2,0-0.3,0.1-0.5,0.1L23.3,70L23.3,70z M29.7,0
	l3.1,0.2c4.9,0.3,9.8,1.2,14.5,2.9c1.4,0.5,2.7,1.1,3.9,1.9c2.5,1.6,2.4,3.1,0,4.8c-2,1.2-4.1,2.2-6.3,2.7c-4.5,1.3-9.2,2-14,2.1
	c-3.6,0.1-7.2,0.1-10.8-0.1c-5.4-0.2-10.8-1.4-15.8-3.4c-0.9-0.4-1.9-1-2.7-1.5C1.1,9.3,0.8,9,0.5,8.6c-0.7-0.7-0.7-1.7,0-2.4
	c0,0,0,0,0.1-0.1c0.5-0.6,1.2-1.1,1.8-1.5c2.3-1.3,4.7-2.2,7.2-2.8c4.2-1,8.5-1.6,12.8-1.8c0.4,0,0.7-0.1,1.1-0.1L29.7,0L29.7,0z
	 M53,14.9c0,0.3,0,0.4,0,0.6c0,3.3,0,6.6,0,9.8c0.1,0.8-0.3,1.5-0.9,2c-1,0.8-2.1,1.4-3.3,2c-3.5,1.5-7.2,2.5-11,3
	c-5.1,0.8-10.3,1-15.5,0.7c-5.9-0.3-11.8-1.1-17.4-3.3c-1.3-0.5-2.5-1.2-3.6-1.9C0.4,27.2-0.1,26.1,0,25c0.1-3,0-6,0-8.9v-1.2
	c0.1,0,0.2,0,0.3,0.1c3.4,1.9,7.2,3.2,11.1,3.9c7.2,1.4,14.5,1.8,21.8,1.2c5.5-0.3,10.9-1.4,16-3.3c1.2-0.5,2.3-1.1,3.5-1.7
	C52.7,15,52.8,14.9,53,14.9L53,14.9z M53,33.3v6.1c0,1.4,0,2.8,0,4.2c0,0.9-0.3,1.7-1,2.3c-1.1,0.9-2.4,1.7-3.8,2.2
	c-3.5,1.4-7.1,2.3-10.9,2.7c-5.1,0.7-10.3,0.9-15.4,0.6c-5.7-0.3-11.4-1.1-16.8-3.2c-1.3-0.5-2.5-1.2-3.7-1.9
	c-1-0.6-1.6-1.7-1.5-2.8c0.1-3.2,0-6.3,0-9.5v-0.6c0,0,0.1,0,0.2,0c3.8,2.1,7.9,3.5,12.2,4.1c6.5,1.2,13.1,1.5,19.7,1.1
	c5.7-0.2,11.3-1.3,16.6-3.2C50.1,34.7,51.5,34,53,33.3z"/>
</svg>
