<?xml version="1.0" encoding="utf-8"?>
<!-- Generator: Adobe Illustrator 23.0.1, SVG Export Plug-In . SVG Version: 6.00 Build 0)  -->
<svg version="1.1" id="Layer_1" xmlns="http://www.w3.org/2000/svg" xmlns:xlink="http://www.w3.org/1999/xlink" x="0px" y="0px"
	 viewBox="0 0 75 38" style="enable-background:new 0 0 75 38;" xml:space="preserve">
<style type="text/css">
	.st0{fill-rule:evenodd;clip-rule:evenodd;fill:#3F8ADF;}
</style>
<path class="st0" d="M5.9,8h11.1c3.3,0,5.6,1,7.1,2.8c1.5,1.9,2,4.4,1.5,7.7c-0.2,1.5-0.6,3-1.3,4.3c-0.6,1.4-1.5,2.7-2.7,3.8
	c-1.2,1.3-2.7,2.3-4.4,2.8c-1.6,0.4-3.2,0.6-4.9,0.6h-5L5.8,38H0L5.9,8 M10.8,12.8L8.3,25.3c0.2,0,0.3,0,0.5,0h0.6
	c2.2,0.1,4.5-0.2,6.6-0.8c1.8-0.6,3-2.6,3.6-6.1c0.5-2.9,0-4.6-1.5-5.1c-1.8-0.5-3.7-0.7-5.5-0.6c-0.3,0-0.7,0-1,0L10.8,12.8
	L10.8,12.8 M32.2,0h5.7l-1.6,8h5.1c2.8,0.1,4.9,0.6,6.3,1.8c1.4,1.1,1.8,3.2,1.2,6.4L46.2,30h-5.8L43,16.7c0.3-1,0.2-2.1-0.2-3
	c-0.4-0.6-1.4-0.9-2.9-0.9l-4.6,0L31.9,30h-5.7L32.2,0 M55.1,8h11.1c3.3,0,5.6,1,7.1,2.8s2,4.4,1.5,7.7c-0.2,1.5-0.6,3-1.3,4.3
	c-0.6,1.4-1.5,2.7-2.7,3.8c-1.2,1.3-2.7,2.3-4.4,2.8c-1.6,0.4-3.2,0.6-4.9,0.6h-5L55,38h-5.8L55.1,8 M60,12.8l-2.5,12.6
	c0.2,0,0.3,0,0.5,0h0.6c2.2,0.1,4.5-0.2,6.6-0.8c1.8-0.6,3-2.6,3.6-6.1c0.5-2.9,0-4.6-1.5-5.1c-1.8-0.5-3.7-0.7-5.5-0.6
	c-0.3,0-0.6,0-1,0L60,12.8L60,12.8"/>
</svg>
