<?xml version="1.0" encoding="utf-8"?>
<!-- Generator: Adobe Illustrator 23.0.1, SVG Export Plug-In . SVG Version: 6.00 Build 0)  -->
<svg version="1.1" id="Layer_1" xmlns="http://www.w3.org/2000/svg" xmlns:xlink="http://www.w3.org/1999/xlink" x="0px" y="0px"
	 viewBox="0 0 69 70" style="enable-background:new 0 0 69 70;" xml:space="preserve">
<style type="text/css">
	.st0{fill-rule:evenodd;clip-rule:evenodd;fill:#D7D7D7;}
</style>
<path class="st0" d="M23.1,0c1.5,0.2,3.1,0.3,4.6,0.6c3.1,0.4,6,1.3,8.8,2.8C37.6,4.2,38.7,5,39.7,6c0.3,0.3,0.5,0.6,0.7,0.9
	c1.4,2.8,0.9,4-1.2,5.4c-2.4,1.5-5,2.6-7.8,3c-8.1,1.7-16.4,1.5-24.3-0.8c-1.8-0.5-3.5-1.3-5.1-2.4c-2-1.4-2.4-2.6-1.2-5.1
	c0.8-1.5,2-2.7,3.5-3.5c2.9-1.6,6-2.7,9.3-3.1C15,0.3,16.5,0.2,18,0H23.1L23.1,0z M19.7,70c-0.2-0.1-0.4-0.2-0.6-0.2
	c-1.8-0.5-3.3-1.8-3.9-3.6c-0.1-0.4-0.4-0.6-0.8-0.6c-3.5,0-7,0-10.4,0H3v-2.9h0.8c3.4,0,6.9,0,10.3,0c0.4,0.1,0.8-0.2,0.9-0.6
	c0.6-1.6,1.9-2.9,3.5-3.4c0.3-0.1,0.6-0.4,0.5-0.7c0-1.3,0-2.6,0-4C18,53.9,17,53.8,16,53.7c-3.8-0.3-7.6-1.3-11-3
	c-1.5-0.7-2.7-1.8-3.8-3c-0.7-0.8-1.1-1.8-1.2-2.8c-0.1-2.4,0-4.7,0-7.1c0,0,0.1,0,0.1,0c3.7,2.2,7.9,3.6,12.2,4
	c2.2,0.3,4.4,0.4,6.6,0.6c0.3,0,0.7,0.2,0.8,0.5c1.3,3.4,4.3,5.9,8,6.5c0.6,0.1,1.2,0.4,1.6,0.7c1.1,0.8,2.3,1.4,3.4,2.1
	c-3.5,1.1-7.1,1.7-10.7,1.8v1.8c0,0.8,0,1.6,0,2.3c0,0.2,0.1,0.4,0.3,0.5c2,0.6,3.5,2.2,4,4.2h11.9v2.8H26.3
	c-0.4,1.6-1.5,2.9-2.9,3.7c-0.6,0.3-1.3,0.5-1.9,0.7L19.7,70L19.7,70z M41.1,24.6c1.5-5.9,7.5-9.4,13.4-7.9c0.2,0.1,0.5,0.1,0.7,0.2
	c5.6,1.8,8.7,7.8,6.9,13.4c-0.1,0.3-0.2,0.6-0.3,0.9c0.3,0.1,0.6,0.1,0.9,0.2c4.2,0.9,7,5,6.1,9.2c-0.2,0.8-0.4,1.5-0.8,2.2
	c-2.3,4.4-6.9,6.3-12,4.8c-0.8-0.2-1.6-0.9-2.4-0.8c-0.7,0.1-1.3,0.9-2,1.3c-2.7,1.7-7.5,1.9-10.3-1.5c-0.4,0.3-0.8,0.7-1.2,1
	c-2,1.7-4.8,2.2-7.2,1.2c-1-0.3-1.9-1-2.4-1.9c-0.2-0.2-0.5-0.3-0.8-0.4c-1.9,0-3.7-0.7-5.1-1.8c-4.1-3.4-3.2-10.2,1.7-12.7
	c0.3-0.2,0.6-0.3,0.9-0.4c-0.8-4,0.6-7.1,4.3-9C34.8,21,38.7,21.8,41.1,24.6z M0,14.8c1.5,0.7,2.9,1.5,4.4,2
	c3.5,1.3,7.2,2.1,10.9,2.3c4.6,0.5,9.3,0.3,13.8-0.4c4.2-0.7,8.2-1.7,11.8-4c0.1,0,0.1,0,0.2,0c0.1,1.1,0.1,2.3-0.1,3.4
	c-0.2,0.7-0.6,1.3-1.2,1.8c-0.2,0-0.4,0-0.6-0.1c-5.4-2.3-11.6,0.1-14.1,5.4c-0.4,0.8-0.6,1.7-1,2.7c-1.4,0-2.8,0.1-4.3,0.1
	c-4.5,0-9.1-0.7-13.4-2c-1.8-0.5-3.4-1.4-4.9-2.5c-1-0.7-1.6-1.9-1.5-3.1C0.1,18.5,0,16.6,0,14.8z M0,26.1c0.7,0.4,1.3,0.8,2,1.1
	c3.3,1.6,6.9,2.7,10.6,3c3.2,0.3,6.4,0.4,9.7,0.6c0.2,0,0.3,0,0.6,0c-2.5,2.1-3.9,5.2-3.8,8.5c-0.1,0-0.1,0.1-0.2,0.1
	c-5-0.2-10-0.8-14.7-2.9C3.1,36,2,35.3,1,34.5c-0.7-0.5-1-1.4-1-2.2C0.1,30.3,0,28.3,0,26.1z"/>
</svg>
